<svg width="31" height="35" viewBox="0 0 31 35" fill="none" xmlns="http://www.w3.org/2000/svg">
<path d="M6.93902 30.6252H0.512054V10.1789H6.93902V30.6252ZM3.72208 7.38982C1.66694 7.38982 0 5.70818 0 3.67791C1.47098e-08 2.70269 0.392146 1.76742 1.09017 1.07784C1.7882 0.388257 2.73492 0.000854492 3.72208 0.000854492C4.70923 0.000854492 5.65596 0.388257 6.35398 1.07784C7.05201 1.76742 7.44415 2.70269 7.44415 3.67791C7.44415 5.70818 5.77652 7.38982 3.72208 7.38982ZM30.9931 30.6252H24.58V20.672C24.58 18.3 24.5315 15.258 21.2385 15.258C17.897 15.258 17.3849 17.8351 17.3849 20.5011V30.6252H10.9649V10.1789H17.1289V12.9679H17.2188C18.0769 11.3615 20.1728 9.66619 23.2998 9.66619C29.8043 9.66619 31 13.8976 31 19.3937V30.6252H30.9931Z" fill="white"/>
</svg>
